<?xml version="1.0" encoding="utf-8"?>
<!-- Generator: Adobe Illustrator 19.2.0, SVG Export Plug-In . SVG Version: 6.00 Build 0)  -->
<svg version="1.0" xmlns="http://www.w3.org/2000/svg" xmlns:xlink="http://www.w3.org/1999/xlink" x="0px" y="0px"
	 viewBox="0 0 161 161" style="enable-background:new 0 0 161 161;" xml:space="preserve">
<style type="text/css">
	.st0{fill:#112827;}
	.st1{fill:#5D6160;}
	.st2{fill:#4C504F;}
	.st3{fill:#AFBCB8;}
	.st4{fill:#4DB26F;}
	.st5{fill:#69BA81;}
	.st6{fill:#7BC18F;}
	.st7{fill:#374B58;}
	.st8{fill:#496272;}
	.st9{fill:#95A8B0;}
	.st10{fill:#B9CED9;}
	.st11{fill:#CD9696;}
	.st12{fill:#EAA9AA;}
	.st13{fill:#AB5547;}
	.st14{fill:#DD6B5B;}
	.st15{fill:#205EA9;}
	.st16{fill:#FFFFFF;}
	.st17{fill:#E72F40;}
</style>
<g id="Calque_1">
	<g>
		<path class="st0" d="M118.8,60.5c0,2-1,3.2-3,3.2H38c-2,0-3-1.2-3-3.2V57c0-2,1-3.4,3-3.4h77.8c2,0,3,1.3,3,3.4V60.5z"/>
		<path class="st1" d="M127.2,56c0,2-2.5,4.4-4.4,4.4H30.9c-1.8,0-4.4-2.3-4.4-4.4V32.4c0-2,2.5-3.9,4.4-3.9h91.9
			c1.8,0,4.4,1.8,4.4,3.9V56z"/>
		<path class="st2" d="M26.6,32.4c0-2,2.5-3.9,4.4-3.9h91.9c1.8,0,4.4,1.8,4.4,3.9V56c0,2-2.5,4.4-4.4,4.4"/>
		<g>
			<path class="st0" d="M36.6,49.3c0,0.3-0.5,0.7-0.8,0.7l0,0c-0.3,0-0.8-0.3-0.8-0.7V38.9c0-0.3,0.5-0.7,0.8-0.7l0,0
				c0.3,0,0.8,0.3,0.8,0.7V49.3z"/>
			<path class="st0" d="M41.7,49.3c0,0.3-0.5,0.7-0.8,0.7l0,0c-0.3,0-0.8-0.3-0.8-0.7V38.9c0-0.3,0.5-0.7,0.8-0.7l0,0
				c0.3,0,0.8,0.3,0.8,0.7V49.3z"/>
			<path class="st0" d="M46.7,49.3c0,0.3-0.5,0.7-0.8,0.7l0,0c-0.3,0-0.8-0.3-0.8-0.7V38.9c0-0.3,0.5-0.7,0.8-0.7l0,0
				c0.3,0,0.8,0.3,0.8,0.7V49.3z"/>
		</g>
		<g>
			<path class="st3" d="M103.7,44.4c0,0.5-0.3,0.8-0.8,0.8H52.6c-0.5,0-0.8-0.3-0.8-0.8l0,0c0-0.5,0.3-0.8,0.8-0.8h50.1
				C103.4,43.6,103.7,43.9,103.7,44.4L103.7,44.4z"/>
			<circle class="st3" cx="103.4" cy="44.1" r="5.2"/>
		</g>
		<circle class="st4" cx="103.4" cy="44.1" r="2.5"/>
		<path class="st5" d="M105,46c-1,1-2.5,1-3.5,0c-1-1-1-2.5,0-3.5"/>
		<path class="st6" d="M118.6,44.1c0,1.3-1.2,2.5-2.5,2.5c-1.3,0-2.5-1.2-2.5-2.5c0-1.3,1.2-2.5,2.5-2.5
			C117.5,41.6,118.6,42.8,118.6,44.1z"/>
		<path class="st5" d="M117.8,46c-1,1-2.5,1-3.5,0c-1-1-1-2.5,0-3.5"/>
		<path class="st0" d="M118.8,94.6c0,2-1,4.4-3,4.4H38c-2,0-3-2.3-3-4.4v-3.5c0-2,1-3.9,3-3.9h77.8c2,0,3,1.8,3,3.9V94.6z"/>
		<path class="st1" d="M127.2,90.1c0,2-2.5,3.9-4.4,3.9H30.9c-1.8,0-4.4-1.8-4.4-3.9V66.4c0-2,2.5-4.4,4.4-4.4h91.9
			c2,0,4.4,2.3,4.4,4.4V90.1L127.2,90.1z"/>
		<path class="st2" d="M26.6,66.4c0-2,2.5-4.4,4.4-4.4h91.9c2,0,4.4,2.3,4.4,4.4v23.6c0,2-2.5,3.9-4.4,3.9"/>
		<g>
			<path class="st0" d="M36.6,83.4c0,0.3-0.5,0.7-0.8,0.7l0,0c-0.3,0.2-0.8-0.2-0.8-0.7V73c0-0.3,0.5-0.7,0.8-0.7l0,0
				c0.3,0,0.8,0.3,0.8,0.7V83.4z"/>
			<path class="st0" d="M41.7,83.2c0,0.3-0.3,0.7-0.7,0.7h-0.2c-0.3,0-0.7-0.3-0.7-0.7V73c0-0.3,0.3-0.7,0.7-0.7H41
				c0.3,0,0.7,0.3,0.7,0.7V83.2z"/>
			<path class="st0" d="M46.7,83.2c0,0.3-0.3,0.7-0.7,0.7h-0.2c-0.3,0-0.7-0.3-0.7-0.7V73c0-0.3,0.3-0.7,0.7-0.7H46
				c0.3,0,0.7,0.3,0.7,0.7V83.2z"/>
		</g>
		<g>
			<path class="st3" d="M103.2,78c0,0.5-0.3,0.8-0.8,0.8H52.6c-0.5,0-0.8-0.3-0.8-0.8l0,0c0-0.5,0.3-0.8,0.8-0.8h49.8
				C102.9,77.1,103.2,77.5,103.2,78L103.2,78z"/>
			<circle class="st3" cx="103.4" cy="78.2" r="5.2"/>
		</g>
		<circle class="st4" cx="103.4" cy="78.2" r="2.5"/>
		<path class="st5" d="M105,80c-1,1-2.5,1-3.5,0s-1-2.5,0-3.5"/>
		<path class="st6" d="M118.6,78.2c0,1.3-1.2,2.5-2.5,2.5c-1.3,0-2.5-1.2-2.5-2.5c0-1.3,1.2-2.5,2.5-2.5
			C117.5,75.6,118.6,76.8,118.6,78.2z"/>
		<path class="st5" d="M117.8,80c-1,1-2.5,1-3.5,0c-1-1-1-2.5,0-3.5"/>
		<path class="st0" d="M118.8,128.6c0,2-1,3.9-3,3.9H38c-2,0-3-1.8-3-3.9v-3.5c0-1.8,1-2.7,3-2.7h77.8c2,0,3,0.8,3,2.7V128.6z"/>
		<path class="st1" d="M127.2,124.1c0,2-2.5,3.4-4.4,3.4H30.9c-1.8,0-4.4-1.3-4.4-3.4v-23.6c0-2,2.5-3.2,4.4-3.2h91.9
			c2,0,4.4,1.2,4.4,3.2V124.1L127.2,124.1z"/>
		<path class="st2" d="M26.6,100.5c0-2,2.5-3.2,4.4-3.2h91.9c2,0,4.4,1.2,4.4,3.2v23.6c0,2-2.5,3.4-4.4,3.4"/>
		<g>
			<path class="st0" d="M36.6,117.4c0,0.3-0.5,0.7-0.8,0.7l0,0c-0.3,0.2-0.8-0.2-0.8-0.7V107c0-0.3,0.5-0.7,0.8-0.7l0,0
				c0.3,0,0.8,0.3,0.8,0.7V117.4z"/>
			<path class="st0" d="M41.7,117.4c0,0.3-0.5,0.7-0.8,0.7l0,0c-0.3,0-0.8-0.3-0.8-0.7V107c0-0.3,0.5-0.7,0.8-0.7l0,0
				c0.3,0,0.8,0.3,0.8,0.7V117.4z"/>
			<path class="st0" d="M46.7,117.4c0,0.3-0.5,0.7-0.8,0.7l0,0c-0.3,0-0.8-0.3-0.8-0.7V107c0-0.3,0.5-0.7,0.8-0.7l0,0
				c0.3,0,0.8,0.3,0.8,0.7V117.4z"/>
		</g>
		<g>
			<path class="st3" d="M103.7,111.5c0,0.5-0.3,0.8-0.8,0.8H52.6c-0.5,0-0.8-0.3-0.8-0.8l0,0c0-0.5,0.3-0.8,0.8-0.8h50.1
				C103.4,110.7,103.7,111,103.7,111.5L103.7,111.5z"/>
			<circle class="st3" cx="103.4" cy="112.2" r="5.2"/>
		</g>
		<circle class="st4" cx="103.4" cy="112.2" r="2.5"/>
		<path class="st5" d="M105,114c-1,1-2.5,1-3.5,0s-1-2.5,0-3.5"/>
		<path class="st6" d="M118.6,112.2c0,1.3-1.2,2.5-2.5,2.5c-1.3,0-2.5-1.2-2.5-2.5c0-1.3,1.2-2.5,2.5-2.5
			C117.5,109.7,118.6,110.9,118.6,112.2z"/>
		<path class="st5" d="M117.8,114c-1,1-2.5,1-3.5,0c-1-1-1-2.5,0-3.5"/>
		<g>
		</g>
		<g>
		</g>
		<g>
		</g>
		<g>
		</g>
		<g>
		</g>
		<g>
		</g>
		<g>
		</g>
		<g>
		</g>
		<g>
		</g>
		<g>
		</g>
		<g>
		</g>
		<g>
		</g>
		<g>
		</g>
		<g>
		</g>
		<g>
		</g>
	</g>
</g>
<g id="Calque_2">
	<g>
		<path class="st7" d="M130.7,112h-26H93.7c-8.5,0-15.7,6.6-16.2,15.1l-1.9,28.4c-0.1,1,0.3,1.9,1,2.6c0.7,0.7,1.6,1,2.6,1h26.2
			 M105.3,159.1h24.7h26.3c1,0,1.9-0.4,2.6-1.1c0.7-0.7,1-1.7,1-2.7l-1.9-28.3c-0.6-8.5-7.7-15.1-16.2-15.1h-11.1"/>
		<path class="st8" d="M116.1,112H93.7c-8.5,0-15.7,6.6-16.2,15.1l-1.9,28.4c-0.1,1,0.3,1.9,1,2.6c0.7,0.7,1.6,1,2.6,1h37L116.1,112
			L116.1,112z"/>
		<path class="st9" d="M135.5,132.2h3.2c1.9,0,3-1.7,2.1-3.3l-10-16.8h-26l-10,16.8c-0.9,1.6,0.2,3.3,2.1,3.3h3.2
			c1.2,0,2.2,0.9,2.4,2.1l3,24.8h24.6l3-24.8C133.2,133.1,134.3,132.2,135.5,132.2z"/>
		<path class="st10" d="M117.8,112h-13l-10,16.8c-0.9,1.6,0.2,3.3,2.1,3.3h3.2c1.2,0,2.2,0.9,2.4,2.1l3,24.8h12.3L117.8,112z"/>
		<path class="st7" d="M124.4,114.9c0-2.2-1.8-4-4-4h-0.3c-0.7-0.5-1.5-0.8-2.4-0.8c-0.9,0-1.7,0.3-2.4,0.8h-0.3c-2.2,0-4,1.8-4,4
			c0,1.7,1.1,3.2,2.6,3.7V153c0,2.2,1.8,4,4,4s4-1.8,4-4v-34.4C123.3,118.1,124.4,116.6,124.4,114.9z"/>
		<path class="st8" d="M117.8,110.1c-0.9,0-1.7,0.3-2.4,0.8h-0.3c-2.2,0-4,1.8-4,4c0,1.7,1.1,3.2,2.6,3.7V153c0,2.2,1.8,4,4,4V110.1
			z"/>
		<path class="st9" d="M145.8,155.1h-3.4c-1.6,0-3-1.3-3-3V143c0-1.6,1.3-3,3-3h3.4c1.6,0,3,1.3,3,3v9.1
			C148.8,153.8,147.5,155.1,145.8,155.1z"/>
		<path class="st7" d="M138.2,93.1H97.7c-2,0-3.6-1.4-3.9-3.4l-2.7-17.6c-0.7-4.5,0.4-8.9,3.2-12.4c2.7-3.6,6.7-5.8,11.2-6.3
			l20.9-2.3c5-0.6,9.9,1.2,13.4,4.7c3.5,3.6,5.2,8.5,4.7,13.5l-2.4,20.4C141.9,91.6,140.2,93.1,138.2,93.1z"/>
		<path class="st8" d="M117.8,93.1h-20c-2,0-3.6-1.4-3.9-3.4l-2.7-17.6c-0.7-4.5,0.4-8.9,3.2-12.4c2.7-3.6,6.7-5.8,11.2-6.3
			l12.3-1.4L117.8,93.1z"/>
		<path class="st11" d="M119.8,114.7h-4.1c-9.1,0-16.5-7.4-16.5-16.5V77.7h37v20.5C136.3,107.3,128.9,114.7,119.8,114.7z"/>
		<path class="st12" d="M117.8,114.7h-2c-9.1,0-16.5-7.4-16.5-16.5V77.7h18.5L117.8,114.7z"/>
		<circle class="st8" cx="109.7" cy="89.5" r="3.6"/>
		<circle class="st7" cx="125.8" cy="89.5" r="3.6"/>
		<g>
			<path class="st13" d="M117.8,109.3c-2.2,0-4-1.8-4-4v-2.1c0-2.2,1.8-4,4-4c2.2,0,4,1.8,4,4v2.1
				C121.7,107.6,120,109.3,117.8,109.3z"/>
		</g>
		<path class="st14" d="M117.8,109.3c-2.2,0-4-1.8-4-4v-2.1c0-2.2,1.8-4,4-4C117.8,99.2,117.8,109.3,117.8,109.3z"/>
		<path class="st7" d="M122.8,105.4h-10.1c-2.2,0-4-1.8-4-4c0-2.2,1.8-4,4-4h10.1c2.2,0,4,1.8,4,4
			C126.8,103.6,125,105.4,122.8,105.4z"/>
		<path class="st8" d="M117.8,105.4h-5c-2.2,0-4-1.8-4-4c0-2.2,1.8-4,4-4h5L117.8,105.4z"/>
		<g>
		</g>
		<g>
		</g>
		<g>
		</g>
		<g>
		</g>
		<g>
		</g>
		<g>
		</g>
		<g>
		</g>
		<g>
		</g>
		<g>
		</g>
		<g>
		</g>
		<g>
		</g>
		<g>
		</g>
		<g>
		</g>
		<g>
		</g>
		<g>
		</g>
	</g>
</g>
<g id="Calque_3">
	<g>
		<path class="st15" d="M52.7,27c0,12.9-10.6,23.6-23.6,23.6C16.2,50.5,5.6,39.9,5.6,27c0-12.9,10.4-23.6,23.6-23.6
			C41.8,3.4,52.7,14.1,52.7,27"/>
		<path class="st16" d="M34.5,39.4c10.1,4.1,8.3-6.3,3-14.3c-3-4.5-7-8.3-9.5-10.2c-8.3-6.1-13.4-2.4-7.6,9.6
			c1.9,3.9,4.3,6.5,6.2,8.9c1.5,1.9,4.3,2.8,3.3,3.7c-1.1,1-3.8-3.4-3.8-3.4c-2-2.4-3.9-5-5.9-8.6c-4.5-8.1-3.9-16.4,4.3-12.8
			c6.9,3.1,13.5,11.6,16.2,17.7c1.2,2.8,4.6,13.9-6.1,9.4"/>
		<path class="st17" d="M3.1,34c4.4-3,8.6-4.9,15.8-7.2c10-3.3,17.6-5.6,26.9-10.2C50,14.4,57.2,9.8,59.7,5.7
			c-0.8,1.6-3.2,4.6-4.2,6C42.9,27.5,16.1,26.6,3.3,34.1"/>
		<path class="st16" d="M9.6,22.4c4.1,0,3.7,0,3.7,0c0.1,0,3.2,5.5,3.2,5.5c0,0,0-1.9,0-4.4c0-0.3-0.8-1.1-0.8-1.1
			c1.2,0,2.7,0,2.7,0c-0.6,0.7-0.7,0.6-0.7,1c0,1.3,0,3.7,0,6.5c0,0.4,0.3,0.6,0.8,1.3h-3.7c-1.2-2-3.4-5.8-3.4-5.8c0,0,0,2.4,0,4.3
			c0,0.6,0.3,0.8,0.8,1.4c0,0,0.6,0-2.9,0c1.1-0.6,0.9-1.3,0.9-1.3c0-2.6,0-4.8,0-6.3C10.2,23.4,10.2,23.4,9.6,22.4"/>
		<path class="st16" d="M22.2,26.5c0.3-1.2,0.6-2.2,0.8-2.9c0-0.1-0.3-0.5-0.7-1l0-0.1c2.2,0,4.4,0,4.4,0c0.6,1.4,1.9,5.5,3,8
			c0.3,0.7,0.7,0.8,0.7,0.8c-1.8,0-5.3,0-5.2,0c0.9-0.8,0.8-0.8,0.4-2h-2.9c-0.6,1.4,0.2,2,0.3,2c-0.7,0-2.9,0-2.9,0
			c1.2-0.9,1.1-1.1,1.1-1.1C21.5,28.9,21.9,27.6,22.2,26.5l1.2,0c-0.3,0.8-0.5,1.6-0.5,1.6h2.3l-1.3-3.3c0,0-0.3,0.8-0.5,1.6
			L22.2,26.5"/>
		<path class="st16" d="M42,26.6c0.3-1.2,0.6-2.2,0.8-2.9c0-0.1-0.3-0.5-0.7-1l0-0.1c2.2,0,4.4,0,4.4,0c0.6,1.4,1.9,5.5,3,8
			c0.3,0.7,0.7,0.8,0.7,0.8c-1.8,0-5.3,0-5.2,0c0.9-0.8,0.8-0.8,0.4-2h-2.9c-0.6,1.4,0.2,2,0.3,2c-0.7,0-2.9,0-2.9,0
			c1.2-0.9,1.1-1.1,1.1-1.1C41.3,29.1,41.7,27.8,42,26.6l1.2,0c-0.3,0.8-0.5,1.6-0.5,1.6H45L43.7,25c0,0-0.3,0.8-0.5,1.6L42,26.6"/>
		<path class="st16" d="M38.3,24.7c0-1.7,0-2.2,0-2.2C37.6,23,38,23,36.1,22.7c-5.3-0.9-5.7,4.1-2.8,5.2c2.4,0.9,3.3,1.1,2.9,2
			c-0.1,0.3-2.3,1.3-4.6-0.8l0,2.9c0.3-0.3,1.1-0.8,1.1-0.8c0,0,2.5,1.1,4.7,0c3.4-1.7,1.7-4.5-1.9-5.6
			C32.5,24.5,35.3,22.4,38.3,24.7"/>
		<path class="st16" d="M29.5,5.6c0,0.1-0.1,0.2-0.2,0.2c-0.1,0-0.2-0.1-0.2-0.2c0-0.1,0.1-0.2,0.2-0.2C29.4,5.4,29.5,5.5,29.5,5.6"
			/>
		<path class="st16" d="M30.8,8.5c0,0.1-0.1,0.2-0.2,0.2c-0.1,0-0.2-0.1-0.2-0.2c0-0.1,0.1-0.2,0.2-0.2C30.7,8.2,30.8,8.3,30.8,8.5"
			/>
		<path class="st16" d="M34.3,13.2c0,0.1-0.1,0.2-0.2,0.2c-0.1,0-0.2-0.1-0.2-0.2c0-0.1,0.1-0.2,0.2-0.2
			C34.1,13,34.3,13.1,34.3,13.2"/>
		<path class="st16" d="M28.7,10.1c0,0.1-0.1,0.2-0.2,0.2c-0.1,0-0.2-0.1-0.2-0.2c0-0.1,0.1-0.2,0.2-0.2C28.6,9.9,28.7,10,28.7,10.1
			"/>
		<path class="st16" d="M30.8,11.2c0,0.1-0.1,0.2-0.2,0.2c-0.1,0-0.2-0.1-0.2-0.2c0-0.1,0.1-0.2,0.2-0.2
			C30.7,11,30.8,11.1,30.8,11.2"/>
		<path class="st16" d="M28.1,8.1c0,0.1-0.1,0.2-0.2,0.2c-0.1,0-0.2-0.1-0.2-0.2c0-0.1,0.1-0.2,0.2-0.2C28,7.9,28.1,8,28.1,8.1"/>
		<path class="st16" d="M24.9,10.1c0,0.1-0.1,0.2-0.2,0.2c-0.1,0-0.2-0.1-0.2-0.2c0-0.1,0.1-0.2,0.2-0.2
			C24.9,9.9,24.9,9.9,24.9,10.1"/>
		<path class="st16" d="M25.5,10.4c0,0.1-0.1,0.2-0.2,0.2c-0.1,0-0.2-0.1-0.2-0.2c0-0.1,0.1-0.2,0.2-0.2
			C25.4,10.2,25.5,10.3,25.5,10.4"/>
		<path class="st16" d="M26.1,10.8c0,0.1-0.1,0.2-0.2,0.2c-0.1,0-0.2-0.1-0.2-0.2c0-0.1,0.1-0.2,0.2-0.2
			C26,10.6,26.1,10.7,26.1,10.8"/>
		<path class="st16" d="M25.2,11.6c0,0.1-0.1,0.2-0.2,0.2c-0.1,0-0.2-0.1-0.2-0.2c0-0.1,0.1-0.2,0.2-0.2
			C25.1,11.4,25.2,11.5,25.2,11.6"/>
		<path class="st16" d="M20.7,14.7c0,0.1-0.1,0.2-0.2,0.2c-0.1,0-0.2-0.1-0.2-0.2s0.1-0.2,0.2-0.2S20.7,14.6,20.7,14.7"/>
		<path class="st16" d="M21.6,15.7c0,0.1-0.1,0.2-0.2,0.2s-0.2-0.1-0.2-0.2c0-0.1,0.1-0.2,0.2-0.2C21.5,15.5,21.6,15.6,21.6,15.7"/>
		<path class="st16" d="M20.9,31.9c0,0.1-0.1,0.2-0.2,0.2c-0.1,0-0.2-0.1-0.2-0.2c0-0.1,0.1-0.2,0.2-0.2
			C20.8,31.7,20.9,31.8,20.9,31.9"/>
		<path class="st16" d="M21,36.4c0,0.1-0.1,0.2-0.2,0.2c-0.1,0-0.2-0.1-0.2-0.2c0-0.1,0.1-0.2,0.2-0.2C20.9,36.1,21,36.2,21,36.4"/>
		<path class="st16" d="M18.5,38.7c0,0.1-0.1,0.2-0.2,0.2c-0.1,0-0.2-0.1-0.2-0.2c0-0.1,0.1-0.2,0.2-0.2
			C18.4,38.5,18.5,38.6,18.5,38.7"/>
		<path class="st16" d="M15.5,39.6c0,0.1-0.1,0.2-0.2,0.2c-0.1,0-0.2-0.1-0.2-0.2c0-0.1,0.1-0.2,0.2-0.2
			C15.3,39.4,15.5,39.5,15.5,39.6"/>
		<path class="st16" d="M14.8,37.5c0,0.1-0.1,0.2-0.2,0.2c-0.1,0-0.2-0.1-0.2-0.2c0-0.1,0.1-0.2,0.2-0.2
			C14.7,37.3,14.8,37.4,14.8,37.5"/>
		<path class="st16" d="M14.5,38.8c0,0.1-0.1,0.2-0.2,0.2c-0.1,0-0.2-0.1-0.2-0.2c0-0.1,0.1-0.2,0.2-0.2
			C14.4,38.6,14.5,38.7,14.5,38.8"/>
		<path class="st16" d="M12.2,37.7c0,0.1-0.1,0.2-0.2,0.2c-0.1,0-0.2-0.1-0.2-0.2s0.1-0.2,0.2-0.2C12.1,37.6,12.2,37.6,12.2,37.7"/>
		<path class="st16" d="M20.2,41.4c0,0.1-0.1,0.2-0.2,0.2c-0.1,0-0.2-0.1-0.2-0.2c0-0.1,0.1-0.2,0.2-0.2
			C20.1,41.2,20.2,41.3,20.2,41.4"/>
		<path class="st16" d="M22.5,39.7c0,0.1-0.1,0.2-0.2,0.2c-0.1,0-0.2-0.1-0.2-0.2c0-0.1,0.1-0.2,0.2-0.2
			C22.4,39.4,22.5,39.6,22.5,39.7"/>
		<path class="st16" d="M22.8,41.9c0,0.1-0.1,0.2-0.2,0.2c-0.1,0-0.2-0.1-0.2-0.2c0-0.1,0.1-0.2,0.2-0.2
			C22.7,41.7,22.8,41.8,22.8,41.9"/>
		<path class="st16" d="M32.7,39.8c0,0.1-0.1,0.2-0.2,0.2c-0.1,0-0.2-0.1-0.2-0.2c0-0.1,0.1-0.2,0.2-0.2
			C32.6,39.6,32.7,39.7,32.7,39.8"/>
		<path class="st16" d="M28.1,41.4c0,0.1-0.1,0.2-0.2,0.2c-0.1,0-0.2-0.1-0.2-0.2c0-0.1,0.1-0.2,0.2-0.2
			C28,41.2,28.1,41.3,28.1,41.4"/>
		<path class="st16" d="M40.4,43.7c0,0.1-0.1,0.2-0.2,0.2c-0.1,0-0.2-0.1-0.2-0.2c0-0.1,0.1-0.2,0.2-0.2
			C40.3,43.5,40.4,43.6,40.4,43.7"/>
		<path class="st16" d="M41.4,34.7c0,0.1-0.1,0.2-0.2,0.2c-0.1,0-0.2-0.1-0.2-0.2c0-0.1,0.1-0.2,0.2-0.2
			C41.3,34.4,41.4,34.5,41.4,34.7"/>
		<path class="st16" d="M39.5,35.9c0,0.1-0.1,0.2-0.2,0.2c-0.1,0-0.2-0.1-0.2-0.2c0-0.1,0.1-0.2,0.2-0.2
			C39.4,35.8,39.5,35.8,39.5,35.9"/>
		<path class="st16" d="M41.4,36.3c0,0.1-0.1,0.2-0.2,0.2c-0.1,0-0.2-0.1-0.2-0.2c0-0.1,0.1-0.2,0.2-0.2
			C41.3,36.1,41.4,36.2,41.4,36.3"/>
		<path class="st16" d="M39.5,38.6c0,0.1-0.1,0.2-0.2,0.2c-0.1,0-0.2-0.1-0.2-0.2c0-0.1,0.1-0.2,0.2-0.2
			C39.4,38.4,39.5,38.5,39.5,38.6"/>
		<path class="st16" d="M44.3,33.4c0,0.1-0.1,0.2-0.2,0.2c-0.1,0-0.2-0.1-0.2-0.2c0-0.1,0.1-0.2,0.2-0.2
			C44.2,33.2,44.3,33.3,44.3,33.4"/>
		<path class="st16" d="M44.8,34.5c0,0.1-0.1,0.2-0.2,0.2c-0.1,0-0.2-0.1-0.2-0.2c0-0.1,0.1-0.2,0.2-0.2
			C44.7,34.3,44.8,34.4,44.8,34.5"/>
		<path class="st16" d="M48.1,35.9c0,0.1-0.1,0.2-0.2,0.2c-0.1,0-0.2-0.1-0.2-0.2c0-0.1,0.1-0.2,0.2-0.2
			C48,35.7,48.1,35.8,48.1,35.9"/>
		<path class="st16" d="M44.7,38.4c0,0.1-0.1,0.2-0.2,0.2c-0.1,0-0.2-0.1-0.2-0.2c0-0.1,0.1-0.2,0.2-0.2
			C44.7,38.2,44.7,38.3,44.7,38.4"/>
		<path class="st16" d="M46.9,36.4c0,0.1-0.1,0.2-0.2,0.2c-0.1,0-0.2-0.1-0.2-0.2s0.1-0.2,0.2-0.2C46.8,36.2,46.9,36.3,46.9,36.4"/>
		<path class="st16" d="M46.5,39.5c0,0.1-0.1,0.2-0.2,0.2c-0.1,0-0.2-0.1-0.2-0.2c0-0.1,0.1-0.2,0.2-0.2
			C46.4,39.3,46.5,39.4,46.5,39.5"/>
		<path class="st16" d="M47.4,34.3c0,0.2-0.1,0.3-0.3,0.3c-0.2,0-0.3-0.1-0.3-0.3c0-0.2,0.1-0.3,0.3-0.3
			C47.2,34,47.4,34.2,47.4,34.3"/>
		<path class="st16" d="M47.1,33.4L47,34.2l-0.8,0.1l0.8,0.1l0.1,0.8l0.1-0.8l0.8-0.1l-0.8-0.1L47.1,33.4"/>
		<path class="st16" d="M45.3,39.5c0,0.2-0.1,0.3-0.3,0.3c-0.2,0-0.3-0.1-0.3-0.3c0-0.2,0.1-0.3,0.3-0.3
			C45.2,39.2,45.3,39.3,45.3,39.5"/>
		<path class="st16" d="M45,38.6l-0.1,0.8l-0.8,0.1l0.8,0.1l0.1,0.8l0.1-0.8l0.8-0.1l-0.8-0.1L45,38.6"/>
		<path class="st16" d="M23.3,15.1c0,0.2-0.1,0.3-0.3,0.3c-0.2,0-0.3-0.1-0.3-0.3c0-0.2,0.1-0.3,0.3-0.3
			C23.1,14.8,23.3,14.9,23.3,15.1"/>
		<path class="st16" d="M23,14.2L22.9,15l-0.8,0.1l0.8,0.1L23,16l0.1-0.8l0.8-0.1L23.1,15L23,14.2"/>
		<path class="st16" d="M34.3,7.9c0,0.2-0.1,0.3-0.3,0.3c-0.2,0-0.3-0.1-0.3-0.3c0-0.2,0.1-0.3,0.3-0.3C34.1,7.6,34.3,7.8,34.3,7.9"
			/>
		<path class="st16" d="M34,7l-0.1,0.8l-0.8,0.1L33.9,8L34,8.9L34.1,8l0.8-0.1l-0.8-0.1L34,7"/>
		<path class="st16" d="M20.9,44.2c0,0.2-0.1,0.3-0.3,0.3c-0.2,0-0.3-0.1-0.3-0.3c0-0.2,0.1-0.3,0.3-0.3
			C20.8,43.9,20.9,44,20.9,44.2"/>
		<path class="st16" d="M20.6,43.3l-0.1,0.8l-0.8,0.1l0.8,0.1l0.1,0.8l0.1-0.8l0.8-0.1l-0.8-0.1L20.6,43.3"/>
		<path class="st17" d="M59.7,5.7c-3.6,10.7-18,18.9-30.1,26.8c-7.3,4.7-14.6,10.2-19.6,14.8c-1.3,1.2,0.3-0.5-0.2,0.1
			c7-8,15-12.8,19.4-15.8c7.5-5.1,11.8-6.4,24.7-18.3"/>
		<path class="st17" d="M6.1,32.1c-1.3,0.6-2.4,1.3-3.4,1.9l0.6,0.2c0.9-0.5,1.9-1.1,3-1.6"/>
		<path class="st17" d="M12.9,44c-1.2,1-2.4,2.1-3.6,3.3l-0.1,0.8c1.1-1.2,2.5-2.4,4.1-3.7"/>
		<path class="st16" d="M34.5,39.4c10.1,4.1,8.3-6.3,3-14.3c-3-4.5-6.8-8.1-9.5-10.2c-3.2-2.3-3.5-2.5-3.5-2.5
			c7.1,3.4,13.5,11.6,16.2,17.7c1.2,2.8,4.6,13.9-6.1,9.4"/>
	</g>
</g>
</svg>
