<?xml version="1.0" encoding="iso-8859-1"?>
<!-- Generator: Adobe Illustrator 19.0.0, SVG Export Plug-In . SVG Version: 6.00 Build 0)  -->
<svg version="1.1" id="Layer_1" xmlns="http://www.w3.org/2000/svg" xmlns:xlink="http://www.w3.org/1999/xlink" x="0px" y="0px"
	 viewBox="0 0 512 512" style="enable-background:new 0 0 512 512;" xml:space="preserve">
<path style="fill:#364A57;" d="M317.259,288.877H194.526h-52.438c-40.334,0-74.03,30.995-76.713,71.24L56.42,494.184
	c-0.313,4.677,1.329,8.858,4.531,12.281c3.203,3.423,7.68,4.95,12.367,4.95H197.24 M197.239,511.414H314.22h124.462
	c4.687,0,9.164-1.66,12.367-5.082c3.202-3.422,4.842-7.86,4.531-12.537l-8.955-133.74c-2.683-40.246-36.379-71.178-76.713-71.178
	h-52.65"/>
<path style="fill:#476172;" d="M248.081,288.877H142.088c-40.333,0-74.03,30.995-76.713,71.24L56.42,494.184
	c-0.313,4.677,1.329,8.859,4.531,12.281c3.203,3.423,7.68,4.95,12.367,4.95h174.764V288.877H248.081z"/>
<path style="fill:#96A8B0;" d="M339.725,384.478h15.138c8.775,0,14.247-7.894,9.837-15.48l-47.188-79.536H194.525l-47.229,79.605
	c-4.411,7.586,1.061,15.411,9.837,15.411h15.138c5.756,0,10.606,4.378,11.296,10.093L197.775,512h116.442l14.21-117.429
	C329.12,388.856,333.969,384.478,339.725,384.478z"/>
<path style="fill:#B9CED9;" d="M255.992,288.877h-61.467l-47.229,79.605c-4.411,7.586,1.061,15.411,9.837,15.411h15.138
	c5.756,0,10.606,4.378,11.296,10.093l14.21,117.429h58.22L255.992,288.877z"/>
<path style="fill:#364A57;" d="M287.254,302.629c0-10.357-8.396-18.753-18.753-18.753h-1.284c-3.131-2.345-7.005-3.751-11.218-3.751
	c-4.213,0-8.088,1.405-11.218,3.751h-1.284c-10.357,0-18.753,8.396-18.753,18.753c0,8.161,5.223,15.086,12.502,17.663V482.66
	c0,10.357,8.396,18.753,18.753,18.753s18.753-8.396,18.753-18.753V320.292C282.031,317.716,287.254,310.791,287.254,302.629z"/>
<path style="fill:#476172;" d="M255.999,280.125c-4.212,0-8.088,1.405-11.218,3.751h-1.284c-10.357,0-18.753,8.396-18.753,18.753
	c0,8.161,5.223,15.086,12.502,17.663V482.66c0,10.357,8.396,18.753,18.753,18.753V280.125z"/>
<path style="fill:#96A8B0;" d="M388.687,492.661h-15.856c-7.768,0-14.065-6.297-14.065-14.065V435.66
	c0-7.768,6.297-14.065,14.065-14.065h15.856c7.768,0,14.065,6.297,14.065,14.065v42.936
	C402.752,486.364,396.455,492.661,388.687,492.661z"/>
<path style="fill:#364A57;" d="M352.461,199.562H161.318c-9.258,0-17.13-6.755-18.536-15.905l-12.81-83.38
	c-3.233-21.042,2.114-41.94,15.058-58.841c12.943-16.903,31.723-27.515,52.88-29.881L296.832,0.49
	c23.623-2.644,46.78,5.508,63.541,22.358c16.762,16.85,24.788,40.053,22.022,63.658l-11.308,96.486
	C369.98,192.441,361.973,199.562,352.461,199.562z"/>
<path style="fill:#476172;" d="M255.992,199.562h-94.673c-9.258,0-17.13-6.755-18.536-15.905l-12.81-83.38
	c-3.233-21.042,2.114-41.94,15.058-58.841c12.943-16.903,31.723-27.515,52.88-29.881l58.125-6.501L255.992,199.562z"/>
<path style="fill:#CE9696;" d="M265.627,301.724H246.37c-42.982,0-77.826-34.843-77.826-77.826v-97.083h174.908v97.083
	C343.452,266.879,308.609,301.724,265.627,301.724z"/>
<path style="fill:#EAA9A9;" d="M255.992,301.724h-9.623c-42.982,0-77.826-34.843-77.826-77.826v-97.083h87.448L255.992,301.724z"/>
<circle style="fill:#476172;" cx="217.797" cy="182.53" r="16.807"/>
<circle style="fill:#364A57;" cx="294.198" cy="182.53" r="16.807"/>
<g>
	<path style="fill:#AA5446;" d="M255.999,276.375c-10.357,0-18.753-8.396-18.753-18.753V247.62c0-10.357,8.396-18.753,18.753-18.753
		c10.357,0,18.753,8.396,18.753,18.753v10.002C274.752,267.978,266.355,276.375,255.999,276.375z"/>
</g>
<path style="fill:#DD6B5B;" d="M255.999,276.375c-10.357,0-18.753-8.396-18.753-18.753V247.62c0-10.357,8.396-18.753,18.753-18.753
	C255.999,228.363,255.999,276.375,255.999,276.375z"/>
<path style="fill:#364A57;" d="M279.753,257.622h-47.508c-10.357,0-18.753-8.396-18.753-18.753c0-10.357,8.396-18.753,18.753-18.753
	h47.508c10.357,0,18.753,8.396,18.753,18.753C298.506,249.225,290.109,257.622,279.753,257.622z"/>
<path style="fill:#476172;" d="M255.999,257.622h-23.754c-10.357,0-18.753-8.396-18.753-18.753c0-10.357,8.396-18.753,18.753-18.753
	h23.79L255.999,257.622z"/>
<g>
</g>
<g>
</g>
<g>
</g>
<g>
</g>
<g>
</g>
<g>
</g>
<g>
</g>
<g>
</g>
<g>
</g>
<g>
</g>
<g>
</g>
<g>
</g>
<g>
</g>
<g>
</g>
<g>
</g>
</svg>
